{"accessors":[{"bufferView":0,"componentType":5123,"count":58836,"max":[11534],"min":[0],"type":"SCALAR"},{"bufferView":1,"componentType":5126,"count":11535,"max":[0.21336263418197632,0.2133549451828003,-0.47699999809265137],"min":[-0.21333186328411102,-0.2133549451828003,-0.5],"type":"VEC3"},{"bufferView":2,"componentType":5126,"count":11535,"max":[1.0,1.0,1.0],"min":[-1.0,-0.9999639391899109,-1.0],"type":"VEC3"},{"bufferView":3,"componentType":5126,"count":11535,"max":[0.11117485165596008,0.11780613660812378],"min":[0.10523544251918793,0.11037498712539673],"type":"VEC2"},{"bufferView":4,"componentType":5121,"count":696,"max":[251],"min":[0],"type":"SCALAR"},{"bufferView":5,"componentType":5126,"count":252,"max":[0.05000000074505806,0.2385173887014389,-0.3238345682621002],"min":[-0.05000000074505806,0.1596696823835373,-0.5007423162460327],"type":"VEC3"},{"bufferView":6,"componentType":5126,"count":252,"max":[1.0,0.9999856352806091,0.9353833198547363],"min":[-1.0,-0.9899933338165283,-0.9353833198547363],"type":"VEC3"},{"bufferView":7,"componentType":5126,"count":252,"max":[0.11126463115215302,0.11780613660812378],"min":[0.1044568419456482,0.11041909456253052],"type":"VEC2"},{"bufferView":8,"componentType":5123,"count":996,"max":[351],"min":[0],"type":"SCALAR"},{"bufferView":9,"componentType":5126,"count":352,"max":[0.05000000074505806,-0.1596696823835373,-0.3238345682621002],"min":[-0.05000000074505806,-0.2385173887014389,-0.5007423162460327],"type":"VEC3"},{"bufferView":10,"componentType":5126,"count":352,"max":[1.0,0.9999974370002747,0.9353833198547363],"min":[-1.0,-0.9999856352806091,-0.7499553561210632],"type":"VEC3"},{"bufferView":11,"componentType":5126,"count":352,"max":[0.11184413731098175,0.11725002527236938],"min":[0.1044568419456482,0.11167246103286743],"type":"VEC2"},{"bufferView":12,"componentType":5123,"count":60612,"max":[16875],"min":[0],"type":"SCALAR"},{"bufferView":13,"componentType":5126,"count":16876,"max":[0.2017320841550827,0.2017248272895813,1.209094851217546e-15],"min":[-0.2017030119895935,-0.2017248272895813,-0.47699999809265137],"type":"VEC3"},{"bufferView":14,"componentType":5126,"count":16876,"max":[0.9999999403953552,0.9999921321868896,1.0],"min":[-0.9999998211860657,-0.9999968409538269,-1.0],"type":"VEC3"},{"bufferView":15,"componentType":5126,"count":16876,"max":[0.11188077926635742,0.11780613660812378],"min":[0.1044568419456482,0.11036568880081177],"type":"VEC2"},{"bufferView":16,"componentType":5123,"count":4428,"max":[1495],"min":[0],"type":"SCALAR"},{"bufferView":17,"componentType":5126,"count":1496,"max":[0.1937163919210434,0.19373734295368195,0.0],"min":[-0.19374433159828186,-0.19373734295368195,-0.5],"type":"VEC3"},{"bufferView":18,"componentType":5126,"count":1496,"max":[0.9961947202682495,0.99615877866745,1.0],"min":[-0.9961947202682495,-0.99615877866745,-1.0],"type":"VEC3"},{"bufferView":19,"componentType":5126,"count":1496,"max":[0.11179554462432861,0.11784321069717407],"min":[0.1044197678565979,0.11046749353408813],"type":"VEC2"}],"asset":{"generator":"Soft8Soft Verge3D for 3ds Max plug-in","version":"2.0"},"bufferViews":[{"buffer":0,"byteLength":117672,"byteOffset":0,"target":34963},{"buffer":0,"byteLength":138420,"byteOffset":117672,"target":34962},{"buffer":0,"byteLength":138420,"byteOffset":256092,"target":34962},{"buffer":0,"byteLength":92280,"byteOffset":394512,"target":34962},{"buffer":0,"byteLength":696,"byteOffset":486792,"target":34963},{"buffer":0,"byteLength":3024,"byteOffset":487488,"target":34962},{"buffer":0,"byteLength":3024,"byteOffset":490512,"target":34962},{"buffer":0,"byteLength":2016,"byteOffset":493536,"target":34962},{"buffer":0,"byteLength":1992,"byteOffset":495552,"target":34963},{"buffer":0,"byteLength":4224,"byteOffset":497544,"target":34962},{"buffer":0,"byteLength":4224,"byteOffset":501768,"target":34962},{"buffer":0,"byteLength":2816,"byteOffset":505992,"target":34962},{"buffer":0,"byteLength":121224,"byteOffset":508808,"target":34963},{"buffer":0,"byteLength":202512,"byteOffset":630032,"target":34962},{"buffer":0,"byteLength":202512,"byteOffset":832544,"target":34962},{"buffer":0,"byteLength":135008,"byteOffset":1035056,"target":34962},{"buffer":0,"byteLength":8856,"byteOffset":1170064,"target":34963},{"buffer":0,"byteLength":17952,"byteOffset":1178920,"target":34962},{"buffer":0,"byteLength":17952,"byteOffset":1196872,"target":34962},{"buffer":0,"byteLength":11968,"byteOffset":1214824,"target":34962}],"buffers":[{"byteLength":1226792,"uri":"Contenedorbrutesintapa208ltsverde.bin"}],"cameras":[{"extensions":{"S8S_v3d_camera_data":{"controls":"ORBIT","enablePan":true,"moveSpeed":1,"orbitMaxDistance":10000,"orbitMaxPolarAngle":3.141592653589793,"orbitMinDistance":0,"orbitMinPolarAngle":0,"orbitTarget":[0,0,0],"rotateSpeed":1,"viewportFitInitialAspect":1.3333333730697632,"viewportFitType":"VERTICAL"}},"name":"__DEFAULT__","perspective":{"aspectRatio":1.3333333730697632,"yfov":0.2973485414991395,"zfar":4000.0,"znear":1.0},"type":"perspective"}],"extensions":{"S8S_v3d_data":{"lights":[{"color":[1,1,1],"intensity":1,"name":"__DEFAULT__","profile":"max","type":"point"},{"color":[0.0,0.0,0.0],"intensity":1,"name":"__AMBIENT__","profile":"max","type":"ambient"}]}},"extensionsUsed":["S8S_v3d_texture_data","S8S_v3d_material_data","S8S_v3d_camera_data","S8S_v3d_data","S8S_v3d_node_data","S8S_v3d_scene_data"],"images":[{"uri":"PANTONE.jpg"}],"materials":[{"doubleSided":false,"emissiveFactor":[0,0,0],"extensions":{"S8S_v3d_material_data":{"nodeGraph":{"edges":[{"fromNode":1,"fromOutput":0,"toInput":0,"toNode":0},{"fromNode":1,"fromOutput":1,"toInput":1,"toNode":0},{"fromNode":2,"fromOutput":0,"toInput":1,"toNode":1}],"nodes":[{"inputs":[[1,1,1,1]],"is_active_output":true,"name":"MaxOutput","outputs":[],"type":"OUTPUT_MAX"},{"IOR":1.5,"inputFactors":[0,1.0,0,0,0,0,0,0,0,0,0,0],"inputs":[[0.5879999995231628,0.5879999995231628,0.5879999995231628,1.0],[0.5879999995231628,0.5879999995231628,0.5879999995231628,1.0],[0.8999999761581421,0.8999999761581421,0.8999999761581421,1.0],0.10000000149011612,0.0,[0.0,0.0,0.0,1.0],1.0,[0,0,0,0],[0,0,0],[0,0,0,0],[0,0,0,0],0],"is_active_output":false,"name":"Material #57","outputs":[[0,0,0,0]],"selfIllumColorOn":false,"type":"MATERIAL_MAX"},{"alphaAsMono":false,"alphaAsRGB":false,"alphaSource":"FILE","axis":"XY","clampToEdgeNoExtend":[false,false],"inputs":[0.0,0.0,1.0,1.0,0.0],"is_active_output":false,"mapping":"EXPLICIT_MAP_CHANNEL","name":"Map #37","outputs":[[0,0,0,0]],"texture":0,"type":"BITMAP_MAX","uvIndex":0}]},"profile":"max"}},"name":"Material #57"},{"doubleSided":false,"emissiveFactor":[0,0,0],"extensions":{"S8S_v3d_material_data":{"nodeGraph":{"edges":[{"fromNode":1,"fromOutput":0,"toInput":0,"toNode":0},{"fromNode":1,"fromOutput":1,"toInput":1,"toNode":0},{"fromNode":2,"fromOutput":0,"toInput":1,"toNode":1}],"nodes":[{"inputs":[[1,1,1,1]],"is_active_output":true,"name":"MaxOutput","outputs":[],"type":"OUTPUT_MAX"},{"IOR":1.5,"inputFactors":[0,1.0,0,0,0,0,0,0,0,0,0,0],"inputs":[[0.5879999995231628,0.5879999995231628,0.5879999995231628,1.0],[0.5879999995231628,0.5879999995231628,0.5879999995231628,1.0],[0.8999999761581421,0.8999999761581421,0.8999999761581421,1.0],0.10000000149011612,0.0,[0.0,0.0,0.0,1.0],1.0,[0,0,0,0],[0,0,0],[0,0,0,0],[0,0,0,0],0],"is_active_output":false,"name":"Material #59","outputs":[[0,0,0,0]],"selfIllumColorOn":false,"type":"MATERIAL_MAX"},{"alphaAsMono":false,"alphaAsRGB":false,"alphaSource":"FILE","axis":"XY","clampToEdgeNoExtend":[false,false],"inputs":[0.0,0.0,1.0,1.0,0.0],"is_active_output":false,"mapping":"EXPLICIT_MAP_CHANNEL","name":"Map #39","outputs":[[0,0,0,0]],"texture":1,"type":"BITMAP_MAX","uvIndex":0}]},"profile":"max"}},"name":"Material #59"},{"doubleSided":false,"emissiveFactor":[0,0,0],"extensions":{"S8S_v3d_material_data":{"nodeGraph":{"edges":[{"fromNode":1,"fromOutput":0,"toInput":0,"toNode":0},{"fromNode":1,"fromOutput":1,"toInput":1,"toNode":0},{"fromNode":2,"fromOutput":0,"toInput":1,"toNode":1}],"nodes":[{"inputs":[[1,1,1,1]],"is_active_output":true,"name":"MaxOutput","outputs":[],"type":"OUTPUT_MAX"},{"IOR":1.5,"inputFactors":[0,1.0,0,0,0,0,0,0,0,0,0,0],"inputs":[[0.5879999995231628,0.5879999995231628,0.5879999995231628,1.0],[0.5879999995231628,0.5879999995231628,0.5879999995231628,1.0],[0.8999999761581421,0.8999999761581421,0.8999999761581421,1.0],0.10000000149011612,0.0,[0.0,0.0,0.0,1.0],1.0,[0,0,0,0],[0,0,0],[0,0,0,0],[0,0,0,0],0],"is_active_output":false,"name":"Material #60","outputs":[[0,0,0,0]],"selfIllumColorOn":false,"type":"MATERIAL_MAX"},{"alphaAsMono":false,"alphaAsRGB":false,"alphaSource":"FILE","axis":"XY","clampToEdgeNoExtend":[false,false],"inputs":[0.0,0.0,1.0,1.0,0.0],"is_active_output":false,"mapping":"EXPLICIT_MAP_CHANNEL","name":"Map #40","outputs":[[0,0,0,0]],"texture":2,"type":"BITMAP_MAX","uvIndex":0}]},"profile":"max"}},"name":"Material #60"},{"doubleSided":false,"emissiveFactor":[0,0,0],"extensions":{"S8S_v3d_material_data":{"nodeGraph":{"edges":[{"fromNode":1,"fromOutput":0,"toInput":0,"toNode":0},{"fromNode":1,"fromOutput":1,"toInput":1,"toNode":0},{"fromNode":2,"fromOutput":0,"toInput":1,"toNode":1}],"nodes":[{"inputs":[[1,1,1,1]],"is_active_output":true,"name":"MaxOutput","outputs":[],"type":"OUTPUT_MAX"},{"IOR":1.5,"inputFactors":[0,1.0,0,0,0,0,0,0,0,0,0,0],"inputs":[[0.5879999995231628,0.5879999995231628,0.5879999995231628,1.0],[0.5879999995231628,0.5879999995231628,0.5879999995231628,1.0],[0.8999999761581421,0.8999999761581421,0.8999999761581421,1.0],0.10000000149011612,0.0,[0.0,0.0,0.0,1.0],1.0,[0,0,0,0],[0,0,0],[0,0,0,0],[0,0,0,0],0],"is_active_output":false,"name":"Material #58","outputs":[[0,0,0,0]],"selfIllumColorOn":false,"type":"MATERIAL_MAX"},{"alphaAsMono":false,"alphaAsRGB":false,"alphaSource":"FILE","axis":"XY","clampToEdgeNoExtend":[false,false],"inputs":[0.0,0.0,1.0,1.0,0.0],"is_active_output":false,"mapping":"EXPLICIT_MAP_CHANNEL","name":"Map #38","outputs":[[0,0,0,0]],"texture":3,"type":"BITMAP_MAX","uvIndex":0}]},"profile":"max"}},"name":"Material #58"},{"doubleSided":false,"emissiveFactor":[0,0,0],"extensions":{"S8S_v3d_material_data":{"nodeGraph":{"edges":[{"fromNode":1,"fromOutput":0,"toInput":0,"toNode":0},{"fromNode":1,"fromOutput":1,"toInput":1,"toNode":0},{"fromNode":2,"fromOutput":0,"toInput":1,"toNode":1}],"nodes":[{"inputs":[[1,1,1,1]],"is_active_output":true,"name":"MaxOutput","outputs":[],"type":"OUTPUT_MAX"},{"IOR":1.5,"inputFactors":[0,1.0,0,0,0,0,0,0,0,0,0,0],"inputs":[[0.5879999995231628,0.5879999995231628,0.5879999995231628,1.0],[0.5879999995231628,0.5879999995231628,0.5879999995231628,1.0],[0.8999999761581421,0.8999999761581421,0.8999999761581421,1.0],0.10000000149011612,0.0,[0.0,0.0,0.0,1.0],1.0,[0,0,0,0],[0,0,0],[0,0,0,0],[0,0,0,0],0],"is_active_output":false,"name":"Material #56","outputs":[[0,0,0,0]],"selfIllumColorOn":false,"type":"MATERIAL_MAX"},{"alphaAsMono":false,"alphaAsRGB":false,"alphaSource":"FILE","axis":"XY","clampToEdgeNoExtend":[false,false],"inputs":[0.0,0.0,1.0,1.0,0.0],"is_active_output":false,"mapping":"EXPLICIT_MAP_CHANNEL","name":"Map #36","outputs":[[0,0,0,0]],"texture":4,"type":"BITMAP_MAX","uvIndex":0}]},"profile":"max"}},"name":"Material #56"},{"extensions":{"S8S_v3d_material_data":{"nodeGraph":{"edges":[],"nodes":[{"inputs":[[0.0,0.0,0.0,1]],"is_active_output":true,"name":"World Output","outputs":[],"type":"OUTPUT_MAX"}]},"profile":"max"}},"name":"Verge3D_Environment"}],"meshes":[{"name":"S\u00f3lido1","primitives":[{"attributes":{"NORMAL":2,"POSITION":1,"TEXCOORD_0":3},"indices":0,"material":0,"mode":4}]},{"name":"S\u00f3lido2","primitives":[{"attributes":{"NORMAL":6,"POSITION":5,"TEXCOORD_0":7},"indices":4,"material":1,"mode":4}]},{"name":"S\u00f3lido2","primitives":[{"attributes":{"NORMAL":10,"POSITION":9,"TEXCOORD_0":11},"indices":8,"material":2,"mode":4}]},{"name":"S\u00f3lido3","primitives":[{"attributes":{"NORMAL":14,"POSITION":13,"TEXCOORD_0":15},"indices":12,"material":3,"mode":4}]},{"name":"S\u00f3lido1","primitives":[{"attributes":{"NORMAL":18,"POSITION":17,"TEXCOORD_0":19},"indices":16,"material":4,"mode":4}]}],"nodes":[{"children":[1],"extensions":{"S8S_v3d_node_data":{"hidden":false}},"name":"contenedor brute","rotation":[0.7071068286895752,0.0,-0.0,0.7071067690849304]},{"children":[2,3,4,5,6],"extensions":{"S8S_v3d_node_data":{"groupNames":["contenedor brute"],"hidden":false}},"name":"pipote de basura grande"},{"extensions":{"S8S_v3d_node_data":{"frustumCulling":true,"groupNames":["pipote de basura grande","contenedor brute"],"hidden":false,"renderOrder":0,"useCastShadows":true,"useShadows":true}},"mesh":0,"name":"S\u00f3lido1"},{"extensions":{"S8S_v3d_node_data":{"frustumCulling":true,"groupNames":["pipote de basura grande","contenedor brute"],"hidden":false,"renderOrder":0,"useCastShadows":true,"useShadows":true}},"mesh":1,"name":"S\u00f3lido2"},{"extensions":{"S8S_v3d_node_data":{"frustumCulling":true,"groupNames":["pipote de basura grande","contenedor brute"],"hidden":false,"renderOrder":0,"useCastShadows":true,"useShadows":true}},"mesh":2,"name":"S\u00f3lido2"},{"extensions":{"S8S_v3d_node_data":{"frustumCulling":true,"groupNames":["pipote de basura grande","contenedor brute"],"hidden":false,"renderOrder":0,"useCastShadows":true,"useShadows":true}},"mesh":3,"name":"S\u00f3lido3"},{"extensions":{"S8S_v3d_node_data":{"frustumCulling":true,"groupNames":["pipote de basura grande","contenedor brute"],"hidden":false,"renderOrder":0,"useCastShadows":true,"useShadows":true}},"mesh":4,"name":"S\u00f3lido1"},{"camera":0,"children":[8],"name":"__DEFAULT_CAMERA__","rotation":[-0.010912539437413216,0.9852824211120605,0.15605296194553375,0.06889752298593521],"scale":[1.0000001192092896,0.9999998807907104,1.0],"translation":[0.4579303562641144,1.3214219808578491,-3.2582690715789795]},{"extensions":{"S8S_v3d_node_data":{"light":0}},"name":"__DEFAULT_LIGHT__","rotation":[3.774895063202166e-08,0.0,0.0,1.0],"scale":[1.0,1.0,1.0],"translation":[1.2518558502197266,1.8777835369110107,2.503711700439453]}],"samplers":[{}],"scene":0,"scenes":[{"extensions":{"S8S_v3d_scene_data":{"aaMethod":"AUTO","light":1,"postprocessing":[],"shadowMap":{"renderReverseSided":false,"renderSingleSided":true,"type":"PCFPOISSON"},"worldMaterial":5}},"extras":{"animFrameRate":30,"coordSystem":"Z_UP_RIGHT"},"name":"Scene","nodes":[0,7]}],"textures":[{"extensions":{"S8S_v3d_texture_data":{"colorSpace":"srgb","isCubeTexture":false}},"name":"Map #37","sampler":0,"source":0},{"extensions":{"S8S_v3d_texture_data":{"colorSpace":"srgb","isCubeTexture":false}},"name":"Map #39","sampler":0,"source":0},{"extensions":{"S8S_v3d_texture_data":{"colorSpace":"srgb","isCubeTexture":false}},"name":"Map #40","sampler":0,"source":0},{"extensions":{"S8S_v3d_texture_data":{"colorSpace":"srgb","isCubeTexture":false}},"name":"Map #38","sampler":0,"source":0},{"extensions":{"S8S_v3d_texture_data":{"colorSpace":"srgb","isCubeTexture":false}},"name":"Map #36","sampler":0,"source":0}]}
